<?xml version="1.0" encoding="UTF-8" standalone="no"?>
<svg
   xmlns:dc="http://purl.org/dc/elements/1.1/"
   xmlns:cc="http://creativecommons.org/ns#"
   xmlns:rdf="http://www.w3.org/1999/02/22-rdf-syntax-ns#"
   xmlns:svg="http://www.w3.org/2000/svg"
   xmlns="http://www.w3.org/2000/svg"
   xmlns:sodipodi="http://sodipodi.sourceforge.net/DTD/sodipodi-0.dtd"
   xmlns:inkscape="http://www.inkscape.org/namespaces/inkscape"
   height="28"
   viewBox="0 0 28 28"
   width="28"
   version="1.1"
   id="svg6"
   sodipodi:docname="observer.svg"
   inkscape:export-filename="/home/simon/Projects/cosmoscout/cosmoscout-vr/plugins/csp-minimap/gui/img/target.png"
   inkscape:export-xdpi="96"
   inkscape:export-ydpi="96"
   inkscape:version="0.92.4 (5da689c313, 2019-01-14)">
  <metadata
     id="metadata12">
    <rdf:RDF>
      <cc:Work
         rdf:about="">
        <dc:format>image/svg+xml</dc:format>
        <dc:type
           rdf:resource="http://purl.org/dc/dcmitype/StillImage" />
        <dc:title></dc:title>
      </cc:Work>
    </rdf:RDF>
  </metadata>
  <defs
     id="defs10">
    <filter
       inkscape:collect="always"
       style="color-interpolation-filters:sRGB"
       id="filter5187"
       x="-0.1008"
       width="1.2016"
       y="-0.1008"
       height="1.2016">
      <feGaussianBlur
         inkscape:collect="always"
         stdDeviation="0.83641464"
         id="feGaussianBlur5189" />
    </filter>
  </defs>
  <sodipodi:namedview
     pagecolor="#ffffff"
     bordercolor="#666666"
     borderopacity="1"
     objecttolerance="10"
     gridtolerance="10"
     guidetolerance="10"
     inkscape:pageopacity="0"
     inkscape:pageshadow="2"
     inkscape:window-width="1920"
     inkscape:window-height="1005"
     id="namedview8"
     showgrid="false"
     inkscape:zoom="19.666667"
     inkscape:cx="8.884601"
     inkscape:cy="9.5586945"
     inkscape:window-x="0"
     inkscape:window-y="0"
     inkscape:window-maximized="1"
     inkscape:current-layer="svg6" />
  <path
     sodipodi:nodetypes="cccccccccccccccccsssss"
     style="opacity:0.54299999;fill:#000000;fill-opacity:1;stroke:#000000;stroke-width:1.76276898;stroke-miterlimit:4;stroke-dasharray:none;stroke-opacity:1;filter:url(#filter5187)"
     inkscape:connector-curvature="0"
     id="path4526"
     d="M 20.092583,15.813881 C 19.676186,12.039153 16.679939,9.0429053 12.905211,8.6265084 v -1.864734 h -1.810422 v 1.864734 C 7.3200609,9.0429053 4.3238137,12.039153 3.9074168,15.813881 h -1.864734 v 1.810422 h 1.864734 c 0.4163969,3.774728 3.4126441,6.770975 7.1873722,7.187372 v 1.864734 h 1.810422 v -1.864734 c 3.774728,-0.416397 6.770975,-3.412644 7.187372,-7.187372 h 1.864734 V 15.813881 Z M 12,23.055567 c -3.5031652,0 -6.3364746,-2.83331 -6.3364746,-6.336475 0,-3.503166 2.8333094,-6.336475 6.3364746,-6.336475 3.503165,0 6.336475,2.833309 6.336475,6.336475 0,3.503165 -2.83331,6.336475 -6.336475,6.336475 z"
     transform="matrix(1.1345786,0,0,1.1345786,0.37769387,-4.5502113)" />
  <path
     d="M 23.015768,12.884516 C 22.55149,8.6757405 19.210712,5.3349617 15.001936,4.8706843 V 2.7915289 H 12.983338 V 4.8706843 C 8.7745627,5.3349617 5.4337841,8.6757405 4.9695066,12.884516 H 2.8903512 v 2.018598 h 2.0791554 c 0.4642775,4.208775 3.8050561,7.549553 8.0138314,8.013831 V 24.9961 h 2.018598 v -2.079155 c 4.208776,-0.464278 7.549554,-3.805056 8.013832,-8.013831 h 2.079155 v -2.018598 z m -9.023131,8.07439 c -3.905986,0 -7.065091,-3.159106 -7.065091,-7.065091 0,-3.9059859 3.159105,-7.0650913 7.065091,-7.0650913 3.905986,0 7.065092,3.1591054 7.065092,7.0650913 0,3.905985 -3.159106,7.065091 -7.065092,7.065091 z"
     id="path4"
     inkscape:connector-curvature="0"
     style="fill:#00001b;fill-opacity:1;stroke:#ccccff;stroke-width:2.5;stroke-miterlimit:4;stroke-dasharray:none;stroke-opacity:1;paint-order:markers stroke fill"
     sodipodi:nodetypes="cccccccccccccccccsssss" />
  <path
     d="M 0,-0.0988223 H 27.985274 V 27.886452 H 0 Z"
     id="path2"
     inkscape:connector-curvature="0"
     style="fill:none;stroke-width:1" />
</svg>
